<?xml version="1.0" encoding="UTF-8" standalone="no"?>
<svg
   xmlns:dc="http://purl.org/dc/elements/1.1/"
   xmlns:cc="http://creativecommons.org/ns#"
   xmlns:rdf="http://www.w3.org/1999/02/22-rdf-syntax-ns#"
   xmlns:svg="http://www.w3.org/2000/svg"
   xmlns="http://www.w3.org/2000/svg"
   xmlns:sodipodi="http://sodipodi.sourceforge.net/DTD/sodipodi-0.dtd"
   xmlns:inkscape="http://www.inkscape.org/namespaces/inkscape"
   width="220mm"
   height="220mm"
   viewBox="0 0 220 220"
   version="1.1"
   id="svg8"
   inkscape:export-filename="/Users/syzhang/Documents/ADEC/circle_motor/img/instru3.png"
   inkscape:export-xdpi="300"
   inkscape:export-ydpi="300"
   inkscape:version="1.0.1 (c497b03c, 2020-09-10)"
   sodipodi:docname="instru.svg">
  <defs
     id="defs2" />
  <sodipodi:namedview
     id="base"
     pagecolor="#ffffff"
     bordercolor="#666666"
     borderopacity="1.0"
     inkscape:pageopacity="0.0"
     inkscape:pageshadow="2"
     inkscape:zoom="0.35"
     inkscape:cx="829.67824"
     inkscape:cy="33.462396"
     inkscape:document-units="mm"
     inkscape:current-layer="layer1"
     inkscape:document-rotation="0"
     showgrid="false"
     inkscape:window-width="1252"
     inkscape:window-height="981"
     inkscape:window-x="52"
     inkscape:window-y="25"
     inkscape:window-maximized="0" />
  <metadata
     id="metadata5">
    <rdf:RDF>
      <cc:Work
         rdf:about="">
        <dc:format>image/svg+xml</dc:format>
        <dc:type
           rdf:resource="http://purl.org/dc/dcmitype/StillImage" />
        <dc:title></dc:title>
      </cc:Work>
    </rdf:RDF>
  </metadata>
  <g
     inkscape:label="Layer 1"
     inkscape:groupmode="layer"
     id="layer1"
     transform="translate(149.92029,-18.360687)">
    <rect
       style="fill:#333333;fill-opacity:1;stroke:none;stroke-width:8.57837;stroke-miterlimit:4;stroke-dasharray:none;stroke-opacity:1"
       id="rect886-3"
       width="220"
       height="220"
       x="-149.92029"
       y="18.360687" />
    <g
       id="g890"
       transform="rotate(90,40.977517,59.98074)">
      <circle
         style="fill:#71c837;fill-opacity:1;stroke:none;stroke-width:5.8418;stroke-miterlimit:4;stroke-dasharray:none"
         id="path833"
         cx="97.789268"
         cy="140.87854"
         r="25"
         inkscape:export-xdpi="300"
         inkscape:export-ydpi="300" />
      <circle
         style="fill:none;fill-opacity:1;stroke:#e7cf11;stroke-width:5.23066;stroke-miterlimit:4;stroke-dasharray:none;stroke-opacity:1"
         id="path833-3"
         cx="123.54099"
         cy="140.87854"
         r="22.384668"
         inkscape:export-xdpi="300"
         inkscape:export-ydpi="300" />
    </g>
    <text
       xml:space="preserve"
       style="font-style:normal;font-weight:normal;font-size:10.5833px;line-height:1.25;font-family:sans-serif;fill:#000000;fill-opacity:1;stroke:none;stroke-width:0.264583"
       x="-73.369408"
       y="55.939804"
       id="text979-3"><tspan
         sodipodi:role="line"
         id="tspan977-6"
         x="-73.369408"
         y="55.939804"
         style="font-style:normal;font-variant:normal;font-weight:bold;font-stretch:normal;font-size:25.4px;font-family:sans-serif;-inkscape-font-specification:'sans-serif Bold';fill:#ffffff;stroke-width:0.264583">Lose</tspan></text>
    <path
       style="fill:#e6e6e6;stroke:none;stroke-width:0.0976562;stroke-opacity:1"
       d="m -40.843843,149.41923 v -2.83292 l -3.226669,-4.02743 -3.226669,-4.02742 0.03288,-3.56446 c 0.0313,-3.39384 0.0432,-3.59212 0.248607,-4.14258 0.677984,-1.8169 2.100162,-3.01376 3.950175,-3.32432 l 0.366211,-0.0615 v -7.69302 c 0,-8.65687 -0.03551,-8.22025 0.738535,-9.08117 1.32743,-1.47643 3.676826,-1.16476 4.614416,0.61214 l 0.262283,0.49707 0.04883,5.94356 c 0.04402,5.35764 0.06259,5.89675 0.188398,5.46875 0.188541,-0.6414 1.03661,-1.49854 1.708882,-1.72716 1.361541,-0.46301 2.872115,0.14086 3.52876,1.41067 0.08594,0.16619 0.209138,0.72326 0.273775,1.23794 l 0.117522,0.93579 0.116604,-0.38919 c 0.06413,-0.21405 0.266563,-0.56438 0.449848,-0.77851 1.062181,-1.24092 3.00768,-1.34629 4.140914,-0.22427 0.6492,0.64278 0.835799,1.13284 0.906317,2.38024 0.0334,0.59082 0.06882,0.98632 0.07872,0.8789 0.03478,-0.37756 0.382012,-0.98079 0.801223,-1.39191 1.197419,-1.17431 3.183396,-1.02682 4.2047,0.31226 0.194452,0.25496 0.403192,0.62925 0.463867,0.83177 0.07706,0.25719 0.110316,2.27477 0.110316,6.69226 v 6.32406 l -2.169489,3.3732 c -1.979704,3.07811 -2.17547,3.4209 -2.237854,3.91851 -0.0376,0.29993 -0.07207,1.611 -0.0766,2.91349 l -0.0082,2.36816 h -8.203125 -8.203125 z m -11.328125,-34.3741 v -1.46485 h 2.34375 2.34375 v 1.46485 1.46484 h -2.34375 -2.34375 z m 19.791667,1.39974 c -0.03581,-0.0358 -0.06511,-0.69499 -0.06511,-1.46485 v -1.39974 h 2.392578 2.392578 v 1.46485 1.46484 h -2.327473 c -1.280111,0 -2.356772,-0.0293 -2.392578,-0.0651 z m -16.08073,-7.89388 -1.805083,-1.80706 1.025391,-1.0254 1.02539,-1.02539 1.805083,1.80707 1.805084,1.80706 -1.025391,1.02539 -1.025391,1.02539 z m 14.159448,0.78054 -1.022609,-1.0261 1.829897,-1.8299 1.829897,-1.8299 1.049147,1.04915 1.049147,1.04915 -1.804872,1.80685 c -0.99268,0.99377 -1.828075,1.80685 -1.856435,1.80685 -0.02836,0 -0.511737,-0.46175 -1.074172,-1.0261 z m -7.063093,-2.35932 c -0.03581,-0.0358 -0.06511,-1.11247 -0.06511,-2.39258 v -2.32747 h 1.464844 1.464844 v 2.39258 2.39258 h -1.39974 c -0.769857,0 -1.429037,-0.0293 -1.464843,-0.0651 z"
       id="path944" />
  </g>
</svg>
